<svg id="visual" viewBox="0 0 960 300" width="960" height="300" xmlns="http://www.w3.org/2000/svg" xmlns:xlink="http://www.w3.org/1999/xlink" version="1.1"><rect x="0" y="0" width="960" height="300" fill="#001220"></rect><path d="M0 194L22.8 198.2C45.7 202.3 91.3 210.7 137 213.7C182.7 216.7 228.3 214.3 274 207.7C319.7 201 365.3 190 411.2 188.7C457 187.3 503 195.7 548.8 203.5C594.7 211.3 640.3 218.7 686 212.7C731.7 206.7 777.3 187.3 823 186.3C868.7 185.3 914.3 202.7 937.2 211.3L960 220L960 0L937.2 0C914.3 0 868.7 0 823 0C777.3 0 731.7 0 686 0C640.3 0 594.7 0 548.8 0C503 0 457 0 411.2 0C365.3 0 319.7 0 274 0C228.3 0 182.7 0 137 0C91.3 0 45.7 0 22.8 0L0 0Z" fill="#fa7268"></path><path d="M0 170L22.8 169.3C45.7 168.7 91.3 167.3 137 164.8C182.7 162.3 228.3 158.7 274 165C319.7 171.3 365.3 187.7 411.2 182C457 176.3 503 148.7 548.8 141C594.7 133.3 640.3 145.7 686 147.8C731.7 150 777.3 142 823 143.3C868.7 144.7 914.3 155.3 937.2 160.7L960 166L960 0L937.2 0C914.3 0 868.7 0 823 0C777.3 0 731.7 0 686 0C640.3 0 594.7 0 548.8 0C503 0 457 0 411.2 0C365.3 0 319.7 0 274 0C228.3 0 182.7 0 137 0C91.3 0 45.7 0 22.8 0L0 0Z" fill="#ef5f67"></path><path d="M0 97L22.8 107.3C45.7 117.7 91.3 138.3 137 147C182.7 155.7 228.3 152.3 274 148.7C319.7 145 365.3 141 411.2 137C457 133 503 129 548.8 121.2C594.7 113.3 640.3 101.7 686 99C731.7 96.3 777.3 102.7 823 106C868.7 109.3 914.3 109.7 937.2 109.8L960 110L960 0L937.2 0C914.3 0 868.7 0 823 0C777.3 0 731.7 0 686 0C640.3 0 594.7 0 548.8 0C503 0 457 0 411.2 0C365.3 0 319.7 0 274 0C228.3 0 182.7 0 137 0C91.3 0 45.7 0 22.8 0L0 0Z" fill="#e34c67"></path><path d="M0 77L22.8 83.7C45.7 90.3 91.3 103.7 137 110.3C182.7 117 228.3 117 274 109.7C319.7 102.3 365.3 87.7 411.2 86.8C457 86 503 99 548.8 102.5C594.7 106 640.3 100 686 97.3C731.7 94.7 777.3 95.3 823 90C868.7 84.7 914.3 73.3 937.2 67.7L960 62L960 0L937.2 0C914.3 0 868.7 0 823 0C777.3 0 731.7 0 686 0C640.3 0 594.7 0 548.8 0C503 0 457 0 411.2 0C365.3 0 319.7 0 274 0C228.3 0 182.7 0 137 0C91.3 0 45.7 0 22.8 0L0 0Z" fill="#d53867"></path><path d="M0 29L22.8 28.7C45.7 28.3 91.3 27.7 137 33.8C182.7 40 228.3 53 274 53C319.7 53 365.3 40 411.2 41.3C457 42.7 503 58.3 548.8 62.5C594.7 66.7 640.3 59.3 686 55.2C731.7 51 777.3 50 823 49.3C868.7 48.7 914.3 48.3 937.2 48.2L960 48L960 0L937.2 0C914.3 0 868.7 0 823 0C777.3 0 731.7 0 686 0C640.3 0 594.7 0 548.8 0C503 0 457 0 411.2 0C365.3 0 319.7 0 274 0C228.3 0 182.7 0 137 0C91.3 0 45.7 0 22.8 0L0 0Z" fill="#c62368"></path></svg>