<svg id="visual" viewBox="0 0 960 300" width="960" height="300" xmlns="http://www.w3.org/2000/svg" xmlns:xlink="http://www.w3.org/1999/xlink" version="1.1"><rect x="0" y="0" width="960" height="300" fill="#001220"></rect><path d="M0 121L22.8 110.3C45.7 99.7 91.3 78.3 137 76.3C182.7 74.3 228.3 91.7 274 97.8C319.7 104 365.3 99 411.2 93.5C457 88 503 82 548.8 76.3C594.7 70.7 640.3 65.3 686 70.8C731.7 76.3 777.3 92.7 823 98.5C868.7 104.3 914.3 99.7 937.2 97.3L960 95L960 301L937.2 301C914.3 301 868.7 301 823 301C777.3 301 731.7 301 686 301C640.3 301 594.7 301 548.8 301C503 301 457 301 411.2 301C365.3 301 319.7 301 274 301C228.3 301 182.7 301 137 301C91.3 301 45.7 301 22.8 301L0 301Z" fill="#fa7268"></path><path d="M0 158L22.8 155.8C45.7 153.7 91.3 149.3 137 142C182.7 134.7 228.3 124.3 274 121.5C319.7 118.7 365.3 123.3 411.2 130.7C457 138 503 148 548.8 145.2C594.7 142.3 640.3 126.7 686 125.7C731.7 124.7 777.3 138.3 823 136.7C868.7 135 914.3 118 937.2 109.5L960 101L960 301L937.2 301C914.3 301 868.7 301 823 301C777.3 301 731.7 301 686 301C640.3 301 594.7 301 548.8 301C503 301 457 301 411.2 301C365.3 301 319.7 301 274 301C228.3 301 182.7 301 137 301C91.3 301 45.7 301 22.8 301L0 301Z" fill="#ef5f67"></path><path d="M0 197L22.8 192.5C45.7 188 91.3 179 137 176.3C182.7 173.7 228.3 177.3 274 183C319.7 188.7 365.3 196.3 411.2 195.7C457 195 503 186 548.8 176.2C594.7 166.3 640.3 155.7 686 155.8C731.7 156 777.3 167 823 173.5C868.7 180 914.3 182 937.2 183L960 184L960 301L937.2 301C914.3 301 868.7 301 823 301C777.3 301 731.7 301 686 301C640.3 301 594.7 301 548.8 301C503 301 457 301 411.2 301C365.3 301 319.7 301 274 301C228.3 301 182.7 301 137 301C91.3 301 45.7 301 22.8 301L0 301Z" fill="#e34c67"></path><path d="M0 240L22.8 230.2C45.7 220.3 91.3 200.7 137 190.7C182.7 180.7 228.3 180.3 274 188.5C319.7 196.7 365.3 213.3 411.2 215.3C457 217.3 503 204.7 548.8 206.7C594.7 208.7 640.3 225.3 686 229.5C731.7 233.7 777.3 225.3 823 223.3C868.7 221.3 914.3 225.7 937.2 227.8L960 230L960 301L937.2 301C914.3 301 868.7 301 823 301C777.3 301 731.7 301 686 301C640.3 301 594.7 301 548.8 301C503 301 457 301 411.2 301C365.3 301 319.7 301 274 301C228.3 301 182.7 301 137 301C91.3 301 45.7 301 22.8 301L0 301Z" fill="#d53867"></path><path d="M0 245L22.8 241.5C45.7 238 91.3 231 137 233C182.7 235 228.3 246 274 249.2C319.7 252.3 365.3 247.7 411.2 244.7C457 241.7 503 240.3 548.8 237.7C594.7 235 640.3 231 686 233C731.7 235 777.3 243 823 243.8C868.7 244.7 914.3 238.3 937.2 235.2L960 232L960 301L937.2 301C914.3 301 868.7 301 823 301C777.3 301 731.7 301 686 301C640.3 301 594.7 301 548.8 301C503 301 457 301 411.2 301C365.3 301 319.7 301 274 301C228.3 301 182.7 301 137 301C91.3 301 45.7 301 22.8 301L0 301Z" fill="#c62368"></path></svg>